<?xml version="1.0" encoding="UTF-8"?><svg id="a" xmlns="http://www.w3.org/2000/svg" viewBox="0 0 608.74 259.16"><path d="M376.62,118.95c-.47,0-.85-.38-.85-.85v-18h-71.77c-.47,0-.85-.38-.85-.85V.85c0-.47.38-.85.85-.85h22.73c.47,0,.85.38.85.85v77.59h31.98V.85c0-.47.38-.85.85-.85h22.87c.47,0,.85.38.85.85v77.59h12.46c.47,0,.85.38.85.85v38.81c0,.47-.38.85-.85.85h-19.96Z" style="fill:#fff;"/><path d="M376.62,118.1v-18.85h-72.62V.85h22.73v78.44h33.68V.85h22.87v78.44h13.3v38.8h-19.96Z" style="fill:#00434d;"/><path d="M477.93,100.1c-.47,0-.85-.38-.85-.85v-62.77l-40.29,63.23c-.16.25-.43.39-.72.39h-21.76c-.47,0-.85-.38-.85-.85V.85c0-.47.38-.85.85-.85h22.87c.47,0,.85.38.85.85v63.2L478.74.39c.16-.24.43-.39.72-.39h21.34c.47,0,.85.38.85.85v98.4c0,.47-.38.85-.85.85h-22.87Z" style="fill:#fff;"/><path d="M414.32,99.25V.85h22.87v66.11L479.45.85h21.34v98.4h-22.87V33.56l-41.85,65.69h-21.76Z" style="fill:#00434d;"/><path d="M583.67,100.1c-.38,0-.71-.25-.81-.6l-6.49-21.43h-31.23l-6.53,21.43c-.11.36-.44.6-.81.6h-23.28c-.28,0-.53-.13-.69-.36-.16-.22-.2-.51-.11-.77L547.67.57c.12-.34.44-.57.8-.57h24.39c.36,0,.68.23.8.57l34.09,98.4c.09.26.05.55-.11.77-.16.22-.42.36-.69.36h-23.28ZM571.16,60.84l-10.35-34.2-10.42,34.2h20.77Z" style="fill:#fff;"/><path d="M548.47.85h24.39l34.09,98.4h-23.28l-6.67-22.04h-32.49l-6.71,22.04h-23.28L548.47.85ZM572.3,61.69l-11.5-37.97-11.57,37.97h23.06Z" style="fill:#00434d;"/><path d="M320.57,173.02c-.36,0-.68-.22-.8-.56l-2.03-5.58h-8.67l-2.05,5.58c-.12.33-.44.56-.8.56h-3.1c-.28,0-.54-.14-.7-.37s-.19-.52-.1-.78l8.95-23.69c.12-.33.44-.55.8-.55h2.78c.35,0,.67.22.8.55l8.95,23.69c.1.26.06.55-.1.78-.16.23-.42.37-.7.37h-3.23ZM316.2,162.62l-2.77-7.61-2.79,7.61h5.56Z" style="fill:#fff;"/><path d="M303.12,172.17l8.95-23.69h2.78l8.95,23.69h-3.23l-6.46-17.77c-.13-.36-.24-.7-.34-1.03-.1-.33-.18-.68-.26-1.03h-.16c-.08.35-.16.7-.26,1.03-.1.33-.21.68-.34,1.03l-6.53,17.77h-3.1ZM306.97,166.03l.95-2.55h11.05l.94,2.55h-12.94Z" style="fill:#020a0a;"/><path d="M329.5,173.02c-.47,0-.85-.38-.85-.85v-17c0-.47.38-.85.85-.85h7.34c2.05,0,3.71.43,4.94,1.29,1.32.92,1.99,2.3,1.99,4.11,0,1.17-.36,2.17-1.08,2.97-.2.22-.42.42-.65.6.4.22.76.49,1.08.8.83.83,1.25,1.88,1.25,3.15,0,1.83-.68,3.29-2.03,4.32-1.28.98-2.96,1.48-5.01,1.48h-7.82ZM337.32,168.98c.86,0,1.47-.16,1.82-.49.34-.32.5-.72.5-1.26s-.15-.91-.48-1.21c-.34-.31-.97-.47-1.83-.47h-3.97v3.44h3.97ZM336.84,161.51c.84,0,1.44-.15,1.74-.44.3-.29.44-.67.44-1.2,0-.67-.24-.95-.42-1.1-.21-.18-.7-.41-1.77-.41h-3.48v3.15h3.48Z" style="fill:#fff;"/><path d="M329.5,172.17v-17h7.34c1.89,0,3.37.38,4.45,1.13,1.08.75,1.62,1.89,1.62,3.41,0,.96-.29,1.76-.86,2.4-.58.64-1.34,1.06-2.3,1.27v.05c1.17.17,2.1.59,2.76,1.25.67.66,1,1.51,1,2.54,0,1.56-.57,2.78-1.7,3.64-1.13.87-2.63,1.3-4.49,1.3h-7.82ZM332.51,162.36h4.33c1.08,0,1.85-.22,2.33-.67.47-.45.71-1.05.71-1.82s-.24-1.34-.71-1.75c-.47-.41-1.25-.61-2.33-.61h-4.33v4.85ZM332.51,169.83h4.82c1.09,0,1.89-.24,2.4-.72.51-.48.77-1.11.77-1.88s-.25-1.38-.76-1.84-1.31-.69-2.41-.69h-4.82v5.14Z" style="fill:#020a0a;"/><path d="M354.42,173.02c-.47,0-.85-.38-.85-.85v-13.8h-4.48c-.47,0-.85-.38-.85-.85v-2.34c0-.47.38-.85.85-.85h13.67c.47,0,.85.38.85.85v2.34c0,.47-.38.85-.85.85h-4.48v13.8c0,.47-.38.85-.85.85h-3.01Z" style="fill:#fff;"/><path d="M349.08,157.51v-2.34h13.67v2.34h-5.33v14.66h-3.01v-14.66h-5.33Z" style="fill:#020a0a;"/><path d="M375.94,173.5c-2.68,0-4.85-.92-6.47-2.72-1.59-1.78-2.4-4.08-2.4-6.85v-.52c0-2.77.81-5.07,2.4-6.85,1.62-1.81,3.79-2.72,6.47-2.72s4.85.92,6.47,2.72c1.59,1.78,2.4,4.08,2.4,6.85v.52c0,2.77-.81,5.07-2.4,6.85-1.61,1.81-3.79,2.72-6.47,2.72ZM375.94,157.99c-1.35,0-2.33.47-3,1.45-.73,1.06-1.09,2.4-1.09,3.97v.52c0,1.57.37,2.91,1.09,3.97.67.97,1.65,1.45,3,1.45s2.33-.47,3-1.45c.73-1.06,1.09-2.4,1.09-3.97v-.52c0-1.57-.37-2.91-1.1-3.97-.67-.97-1.65-1.45-3-1.45Z" style="fill:#fff;"/><path d="M367.92,163.93v-.52c0-2.56.73-4.66,2.18-6.29,1.45-1.63,3.4-2.44,5.83-2.44s4.38.81,5.83,2.44c1.45,1.63,2.18,3.72,2.18,6.29v.52c0,2.56-.73,4.66-2.18,6.28-1.45,1.63-3.4,2.44-5.83,2.44s-4.38-.81-5.83-2.44c-1.45-1.63-2.18-3.72-2.18-6.28ZM370.99,163.41v.52c0,1.76.41,3.24,1.24,4.45.83,1.21,2.06,1.82,3.7,1.82s2.87-.61,3.7-1.82c.83-1.21,1.24-2.7,1.24-4.45v-.52c0-1.76-.41-3.24-1.24-4.45-.83-1.21-2.06-1.82-3.7-1.82s-2.87.61-3.7,1.82c-.83,1.21-1.24,2.7-1.24,4.45Z" style="fill:#020a0a;"/><path d="M407.72,173.02c-.47,0-.85-.38-.85-.85v-9.22l-4.04,9.55c-.13.31-.44.52-.78.52h-2.58c-.34,0-.65-.21-.78-.52l-4.04-9.56v9.23c0,.47-.38.85-.85.85h-2.76c-.47,0-.85-.38-.85-.85v-17c0-.47.38-.85.85-.85h4.1c.34,0,.65.21.78.52l4.92,11.69,4.94-11.69c.13-.31.44-.52.78-.52h4.02c.47,0,.85.38.85.85v17c0,.47-.38.85-.85.85h-2.86Z" style="fill:#fff;"/><path d="M391.03,172.17v-17h4.1l4.93,11.71c.26.63.43,1.06.5,1.3s.14.49.19.75h.16c.05-.26.11-.51.19-.75.07-.24.23-.67.49-1.27l4.96-11.75h4.02v17h-2.86v-11.57c0-.64,0-1.09.02-1.37.02-.27.04-.52.06-.74h-.14c-.05.22-.12.46-.19.73-.08.27-.24.71-.5,1.33l-4.91,11.62h-2.59l-4.93-11.67c-.23-.55-.38-.97-.46-1.25s-.15-.54-.2-.75h-.16c.02.22.04.46.06.73.02.27.02.69.02,1.26v11.68h-2.76Z" style="fill:#020a0a;"/><path d="M423.55,173.34c-1.81,0-3.37-.53-4.66-1.56-1.34-1.08-2.01-2.63-2.01-4.62s.81-3.6,2.41-4.72c1.51-1.06,3.43-1.59,5.71-1.59h3v-.31c0-.83-.2-1.47-.6-1.96-.36-.43-1.05-.65-2.07-.65s-1.8.19-2.18.56c-.39.37-.57.77-.57,1.24s-.38.93-.85.93h-2.99c-.47,0-.85-.38-.85-.85,0-1.69.71-3.09,2.11-4.26,1.35-1.13,3.17-1.71,5.42-1.71s4.04.57,5.32,1.68c1.31,1.15,1.98,2.83,1.98,5.02v7.76c0,.65.05,1.27.15,1.83.1.55.23,1.05.4,1.46.04.1.06.21.06.32v.26c0,.47-.38.85-.85.85h-2.91c-.31,0-.59-.17-.74-.43-.14-.25-.27-.55-.39-.9-.3.26-.64.5-1.01.72-1.02.62-2.32.93-3.88.93ZM425.33,164.68c-1.32,0-2.3.23-2.92.69-.56.41-.82.93-.82,1.63,0,.74.19,1.28.58,1.67.39.38,1.07.58,2.02.58s1.86-.33,2.66-1.02c.77-.66,1.14-1.29,1.14-1.96v-1.59h-2.67Z" style="fill:#fff;"/><path d="M417.73,167.16c0-1.72.68-3.06,2.05-4.02,1.37-.96,3.11-1.44,5.22-1.44h3.85v-1.16c0-1.02-.26-1.86-.79-2.5-.53-.64-1.44-.96-2.73-.96s-2.22.27-2.77.8c-.55.53-.83,1.15-.83,1.85v.08h-2.99v-.08c0-1.35.6-2.52,1.8-3.53,1.2-1.01,2.82-1.51,4.87-1.51s3.63.49,4.76,1.47,1.69,2.44,1.69,4.38v7.76c0,.7.05,1.36.16,1.98.11.62.26,1.17.45,1.64v.26h-2.91c-.15-.27-.29-.62-.41-1.05s-.2-.86-.23-1.29c-.4.7-1.04,1.32-1.93,1.86-.89.54-2.03.81-3.43.81-1.62,0-2.99-.46-4.12-1.37-1.13-.92-1.7-2.24-1.7-3.96ZM420.74,167c0,.97.28,1.73.84,2.28.56.55,1.43.82,2.62.82s2.26-.41,3.22-1.23c.96-.82,1.44-1.69,1.44-2.6v-2.44h-3.52c-1.51,0-2.65.29-3.43.86-.78.57-1.16,1.34-1.16,2.31Z" style="fill:#020a0a;"/><path d="M443.28,173.02c-.47,0-.85-.38-.85-.85v-13.8h-4.48c-.47,0-.85-.38-.85-.85v-2.34c0-.47.38-.85.85-.85h13.67c.47,0,.85.38.85.85v2.34c0,.47-.38.85-.85.85h-4.48v13.8c0,.47-.38.85-.85.85h-3Z" style="fill:#fff;"/><path d="M437.94,157.51v-2.34h13.67v2.34h-5.33v14.66h-3v-14.66h-5.33Z" style="fill:#020a0a;"/><path d="M468.72,173.02c-.47,0-.85-.38-.85-.85v-9.72l-6.35,10.17c-.16.25-.43.4-.72.4h-3.01c-.47,0-.85-.38-.85-.85v-17c0-.47.38-.85.85-.85h3.01c.47,0,.85.38.85.85v9.73l6.35-10.18c.16-.25.43-.4.72-.4h3c.47,0,.85.38.85.85v17c0,.47-.38.85-.85.85h-3Z" style="fill:#fff;"/><path d="M457.8,172.17v-17h3.01v10.49c0,.32,0,.69,0,1.09,0,.4-.01.77-.02,1.09h.11c.15-.27.32-.56.51-.88.19-.32.38-.64.59-.98l6.74-10.81h3v17h-3v-10.47c0-.32,0-.69,0-1.09,0-.4.01-.77.02-1.09h-.11c-.15.27-.32.56-.51.88-.19.32-.38.64-.59.98l-6.74,10.79h-3.01Z" style="fill:#020a0a;"/><path d="M486.11,173.5c-2.72,0-4.77-.71-6.1-2.1-1.32-1.38-1.99-2.96-1.99-4.68,0-.47.38-.93.85-.93h2.91c.47,0,.85.38.85.85,0,.75.24,1.34.74,1.91.46.52,1.41.8,2.76.8,1.14,0,2.02-.22,2.6-.64.51-.38.75-.86.75-1.53,0-.51-.15-.88-.48-1.18-.34-.3-.97-.46-1.84-.46h-2.99c-.47,0-.85-.38-.85-.85v-2.33c0-.47.38-.85.85-.85h2.51c.87,0,1.5-.15,1.81-.45.31-.29.45-.66.45-1.19,0-.61-.19-1.04-.59-1.35-.45-.35-1.14-.53-2.04-.53-1.17,0-2.04.25-2.58.75-.53.49-.79,1.1-.79,1.87,0,.47-.38.93-.85.93h-2.91c-.47,0-.85-.38-.85-.85,0-2.13.73-3.8,2.16-5.04,1.4-1.21,3.35-1.82,5.82-1.82s4.17.52,5.41,1.53c1.3,1.06,1.95,2.5,1.95,4.26,0,1.07-.36,2.05-1.06,2.91-.22.27-.47.51-.74.72.4.22.76.48,1.07.79.83.82,1.25,1.86,1.25,3.12,0,2.06-.82,3.66-2.43,4.77-1.51,1.04-3.41,1.56-5.66,1.56Z" style="fill:#fff;"/><path d="M486.11,172.65c-2.49,0-4.32-.61-5.49-1.83s-1.75-2.59-1.75-4.1v-.08h2.91v.08c0,.87.32,1.67.95,2.39.64.72,1.77,1.08,3.39,1.08,1.34,0,2.37-.27,3.1-.81.73-.54,1.1-1.28,1.1-2.21,0-.75-.25-1.36-.76-1.81-.51-.45-1.31-.68-2.41-.68h-2.99v-2.33h2.51c1.11,0,1.91-.22,2.39-.67.49-.45.73-1.05.73-1.82,0-.87-.31-1.55-.91-2.02-.61-.47-1.46-.71-2.56-.71-1.4,0-2.45.33-3.16.98-.71.65-1.06,1.48-1.06,2.5v.08h-2.91v-.08c0-1.8.62-3.24,1.87-4.31,1.24-1.08,3-1.62,5.26-1.62s3.78.45,4.87,1.34,1.64,2.09,1.64,3.6c0,.87-.29,1.66-.87,2.37-.58.71-1.36,1.17-2.34,1.37v.05c1.16.17,2.08.58,2.74,1.24.66.65.99,1.49.99,2.51,0,1.77-.69,3.12-2.06,4.06-1.37.94-3.1,1.41-5.18,1.41Z" style="fill:#020a0a;"/><path d="M505.7,173.34c-1.81,0-3.37-.53-4.66-1.56-1.33-1.08-2.01-2.64-2.01-4.62s.81-3.6,2.42-4.72c1.51-1.06,3.43-1.59,5.71-1.59h2.99v-.31c0-.83-.2-1.47-.6-1.96-.36-.43-1.05-.65-2.07-.65s-1.8.19-2.18.56c-.39.37-.57.77-.57,1.24s-.38.93-.85.93h-2.99c-.47,0-.85-.38-.85-.85,0-1.68.71-3.09,2.11-4.26,1.35-1.13,3.17-1.71,5.42-1.71s4.04.57,5.32,1.68c1.31,1.15,1.98,2.83,1.98,5.02v7.76c0,.64.05,1.26.15,1.84.1.56.23,1.05.4,1.46.04.1.06.21.06.32v.26c0,.47-.38.85-.85.85h-2.91c-.31,0-.59-.17-.74-.43-.14-.25-.27-.55-.38-.9-.3.26-.64.5-1.01.72-1.02.62-2.32.93-3.88.93ZM507.48,164.68c-1.32,0-2.3.23-2.92.69-.56.41-.82.93-.82,1.63,0,.74.19,1.29.58,1.67.39.38,1.07.58,2.02.58s1.86-.33,2.66-1.02c.77-.65,1.14-1.29,1.14-1.95v-1.59h-2.67Z" style="fill:#fff;"/><path d="M499.89,167.16c0-1.72.68-3.06,2.05-4.02,1.37-.96,3.11-1.44,5.22-1.44h3.84v-1.16c0-1.02-.26-1.86-.79-2.5-.53-.64-1.44-.96-2.73-.96s-2.22.27-2.77.8c-.55.53-.83,1.15-.83,1.85v.08h-2.99v-.08c0-1.35.6-2.52,1.8-3.53,1.2-1.01,2.83-1.51,4.87-1.51s3.63.49,4.76,1.47c1.13.98,1.69,2.44,1.69,4.38v7.76c0,.7.05,1.36.16,1.98.11.62.26,1.17.45,1.64v.26h-2.91c-.15-.27-.29-.62-.41-1.05s-.2-.86-.23-1.29c-.4.7-1.04,1.32-1.93,1.86-.89.54-2.03.81-3.43.81-1.62,0-2.99-.46-4.12-1.37s-1.7-2.24-1.7-3.96ZM502.89,167c0,.97.28,1.73.84,2.28s1.43.82,2.62.82,2.26-.41,3.22-1.23c.96-.82,1.44-1.69,1.44-2.6v-2.44h-3.52c-1.51,0-2.65.29-3.43.86-.77.57-1.16,1.34-1.16,2.31Z" style="fill:#020a0a;"/><path d="M535.24,177.38c-.47,0-.85-.38-.85-.85v-3.51h-12.38c-.47,0-.85-.38-.85-.85v-17c0-.47.38-.85.85-.85h3.01c.47,0,.85.38.85.85v13.81h5.73v-13.81c0-.47.38-.85.85-.85h3.01c.47,0,.85.38.85.85v13.81h1.65c.47,0,.85.38.85.85v6.71c0,.47-.38.85-.85.85h-2.71Z" style="fill:#fff;"/><path d="M535.24,176.53v-4.36h-13.23v-17h3.01v14.66h7.43v-14.66h3.01v14.66h2.51v6.7h-2.72Z" style="fill:#020a0a;"/><path d="M554.9,173.02c-.47,0-.85-.38-.85-.85v-9.72l-6.35,10.17c-.16.25-.43.4-.72.4h-3.01c-.47,0-.85-.38-.85-.85v-17c0-.47.38-.85.85-.85h3.01c.47,0,.85.38.85.85v9.73l6.35-10.18c.16-.25.43-.4.72-.4h3.01c.47,0,.85.38.85.85v17c0,.47-.38.85-.85.85h-3.01Z" style="fill:#fff;"/><path d="M543.98,172.17v-17h3.01v10.49c0,.32,0,.69,0,1.09,0,.4-.01.77-.02,1.09h.11c.15-.27.32-.56.51-.88.19-.32.38-.64.59-.98l6.74-10.81h3.01v17h-3.01v-10.47c0-.32,0-.69,0-1.09,0-.4.01-.77.02-1.09h-.11c-.15.27-.32.56-.51.88-.19.32-.39.64-.59.98l-6.74,10.79h-3.01Z" style="fill:#020a0a;"/><path d="M576.26,173.02c-.47,0-.85-.38-.85-.85v-5.35h-2.33l-4.1,5.84c-.16.23-.42.36-.7.36h-3.3c-.32,0-.61-.18-.76-.46-.15-.28-.12-.62.07-.88l4.07-5.67c-.63-.25-1.2-.58-1.68-.98-1.33-1.1-2-2.59-2-4.43s.67-3.44,1.98-4.59c1.28-1.12,3.08-1.69,5.37-1.69h7.24c.47,0,.85.38.85.85v17c0,.47-.38.85-.85.85h-3.01ZM572.02,158.36c-1.01,0-1.73.2-2.07.59-.38.42-.57.96-.57,1.65s.18,1.2.55,1.6c.34.37,1.06.57,2.09.57h3.38v-4.41h-3.38Z" style="fill:#fff;"/><path d="M568.28,172.17h-3.3l5.27-7.34,2.99.28-4.96,7.06ZM576.26,172.17v-6.21h-3.94l-.29-.19c-2.08,0-3.68-.47-4.81-1.4-1.13-.93-1.69-2.19-1.69-3.77s.56-2.97,1.69-3.95c1.13-.99,2.73-1.48,4.81-1.48h7.24v17h-3.01ZM572.02,163.62h4.23v-6.11h-4.23c-1.28,0-2.18.29-2.71.87-.52.58-.78,1.32-.78,2.21s.26,1.62.77,2.18c.52.56,1.42.84,2.72.84Z" style="fill:#020a0a;"/><path d="M308.94,212.73c-.47,0-.85-.38-.85-.85v-13.8h-4.48c-.47,0-.85-.38-.85-.85v-2.34c0-.47.38-.85.85-.85h13.67c.47,0,.85.38.85.85v2.34c0,.47-.38.85-.85.85h-4.48v13.8c0,.47-.38.85-.85.85h-3Z" style="fill:#fff;"/><path d="M303.6,197.23v-2.34h13.67v2.34h-5.33v14.66h-3v-14.66h-5.33Z" style="fill:#020a0a;"/><path d="M330.62,213.22c-2.89,0-5.14-.92-6.71-2.73-1.54-1.78-2.32-4.08-2.32-6.84v-.52c0-2.76.78-5.06,2.32-6.84,1.57-1.81,3.66-2.73,6.23-2.73s4.59.87,6,2.59c1.37,1.67,2.07,3.92,2.07,6.7v1.23c0,.47-.38.85-.85.85h-10.91c.15,1.03.49,1.94,1.01,2.7.67.97,1.7,1.45,3.16,1.45.91,0,1.7-.2,2.34-.59.68-.42,1.24-.91,1.65-1.46.14-.18.34-.3.57-.33.04,0,.07,0,.11,0,.19,0,.38.06.53.18l1.94,1.53c.35.27.43.77.18,1.14-.6.91-1.53,1.75-2.75,2.51-1.26.78-2.79,1.18-4.56,1.18ZM333.47,200.82c-.07-.83-.35-1.53-.84-2.13-.54-.66-1.31-.98-2.36-.98-1.3,0-2.23.47-2.86,1.43-.33.5-.58,1.07-.75,1.68h6.81Z" style="fill:#fff;"/><path d="M322.44,203.64v-.52c0-2.56.7-4.66,2.11-6.29,1.41-1.63,3.27-2.44,5.58-2.44s4.1.76,5.35,2.28c1.25,1.52,1.87,3.57,1.87,6.16v1.23h-13.07v-2.39h10.05v-.39c0-1.23-.35-2.27-1.05-3.14-.7-.86-1.71-1.29-3.02-1.29-1.6,0-2.79.61-3.57,1.82s-1.18,2.7-1.18,4.45v.52c0,1.76.41,3.24,1.24,4.45.83,1.21,2.12,1.82,3.86,1.82,1.08,0,2-.24,2.78-.71.78-.47,1.41-1.03,1.89-1.68l1.94,1.53c-.54.81-1.37,1.56-2.5,2.26-1.13.7-2.5,1.05-4.11,1.05-2.64,0-4.66-.81-6.07-2.44-1.41-1.63-2.11-3.72-2.11-6.28Z" style="fill:#020a0a;"/><path d="M354,212.73c-.29,0-.55-.14-.71-.38l-3.45-5.27-3.45,5.27c-.16.24-.42.38-.71.38h-3.39c-.32,0-.61-.17-.75-.46-.15-.28-.13-.62.05-.88l5.6-8.15-5.28-7.9c-.17-.26-.19-.6-.04-.87.15-.28.44-.45.75-.45h3.44c.29,0,.56.15.72.4l3.12,4.94,3.12-4.94c.16-.25.43-.4.72-.4h3.39c.31,0,.6.17.75.45.15.28.13.61-.04.87l-5.28,7.9,5.6,8.15c.18.26.2.6.05.88-.15.28-.44.46-.75.46h-3.44Z" style="fill:#fff;"/><path d="M342.28,211.88l6.46-9.4h.18l4.8-7.59h3.39l-6.14,9.18h-.18l-5.12,7.82h-3.39ZM342.61,194.88h3.44l4.8,7.59h.13l6.46,9.4h-3.44l-5.12-7.82h-.13l-6.14-9.18Z" style="fill:#020a0a;"/><path d="M374.06,212.73c-.47,0-.85-.38-.85-.85v-6.66h-5.89v6.66c0,.47-.38.85-.85.85h-3.01c-.47,0-.85-.38-.85-.85v-17c0-.47.38-.85.85-.85h3.01c.47,0,.85.38.85.85v6.29h5.89v-6.29c0-.47.38-.85.85-.85h3.01c.47,0,.85.38.85.85v17c0,.47-.38.85-.85.85h-3.01Z" style="fill:#fff;"/><path d="M363.46,194.88h3.01v7.14h7.59v-7.14h3.01v17h-3.01v-7.51h-7.59v7.51h-3.01v-17Z" style="fill:#020a0a;"/><path d="M392.16,213.22c-2.68,0-4.85-.92-6.47-2.72-1.59-1.78-2.4-4.08-2.4-6.85v-.52c0-2.77.81-5.07,2.4-6.85,1.62-1.81,3.79-2.72,6.47-2.72s4.85.92,6.47,2.72c1.59,1.78,2.4,4.09,2.4,6.85v.52c0,2.77-.81,5.07-2.4,6.85-1.62,1.81-3.79,2.72-6.47,2.72ZM392.16,197.7c-1.35,0-2.33.47-3,1.45-.73,1.06-1.09,2.4-1.09,3.97v.52c0,1.57.37,2.91,1.09,3.97.67.97,1.65,1.45,3,1.45s2.33-.47,3-1.45c.73-1.06,1.1-2.4,1.1-3.97v-.52c0-1.57-.37-2.91-1.1-3.97-.67-.97-1.65-1.45-3-1.45Z" style="fill:#fff;"/><path d="M384.14,203.64v-.52c0-2.56.73-4.66,2.18-6.29,1.45-1.63,3.4-2.44,5.83-2.44s4.38.81,5.83,2.44c1.45,1.63,2.18,3.72,2.18,6.29v.52c0,2.56-.73,4.66-2.18,6.28-1.45,1.63-3.4,2.44-5.83,2.44s-4.38-.81-5.83-2.44c-1.45-1.63-2.18-3.72-2.18-6.28ZM387.21,203.12v.52c0,1.76.41,3.24,1.24,4.45.83,1.21,2.06,1.82,3.7,1.82s2.87-.61,3.7-1.82c.83-1.21,1.24-2.7,1.24-4.45v-.52c0-1.76-.42-3.24-1.24-4.45s-2.06-1.82-3.7-1.82-2.87.61-3.7,1.82c-.83,1.21-1.24,2.7-1.24,4.45Z" style="fill:#020a0a;"/><path d="M406.79,213.09c-.41,0-.79-.03-1.14-.08-.39-.06-.72-.16-1-.29-.3-.14-.49-.44-.49-.77v-2.52c0-.28.14-.55.38-.71.14-.09.31-.14.47-.14.11,0,.22.02.33.07.12.05.25.08.38.11.16.03.33.04.52.04.41,0,.7-.12.89-.72.25-.8.43-2.33.53-4.56l.37-8.66c.02-.46.39-.81.85-.81h11.76c.47,0,.85.38.85.85v17c0,.47-.38.85-.85.85h-3.01c-.47,0-.85-.38-.85-.85v-13.8h-4.43l-.26,5.92c-.13,3.08-.52,5.26-1.18,6.67-.52,1.1-1.65,2.42-4.13,2.42Z" style="fill:#fff;"/><path d="M411.54,197.23l-.29,6.74c-.13,2.94-.5,5.06-1.1,6.34-.6,1.29-1.72,1.93-3.36,1.93-.37,0-.7-.02-1.01-.07-.31-.05-.56-.12-.77-.22v-2.52c.18.08.37.13.57.16.2.03.42.05.65.05.85,0,1.42-.44,1.7-1.31.28-.87.47-2.47.57-4.78l.37-8.66h11.76v17h-3.01v-14.66h-6.09Z" style="fill:#020a0a;"/><path d="M435.78,213.22c-2.68,0-4.85-.92-6.47-2.72-1.59-1.78-2.4-4.08-2.4-6.85v-.52c0-2.77.81-5.07,2.4-6.85,1.61-1.81,3.79-2.72,6.47-2.72s4.85.92,6.47,2.72c1.59,1.78,2.4,4.08,2.4,6.85v.52c0,2.77-.81,5.07-2.4,6.85-1.61,1.81-3.79,2.72-6.47,2.72ZM435.78,197.7c-1.35,0-2.33.47-3,1.45-.73,1.06-1.09,2.4-1.09,3.97v.52c0,1.57.37,2.91,1.09,3.97.67.97,1.65,1.45,3,1.45s2.33-.47,3-1.45c.73-1.06,1.09-2.4,1.09-3.97v-.52c0-1.57-.37-2.91-1.1-3.97-.67-.97-1.65-1.45-3-1.45Z" style="fill:#fff;"/><path d="M427.76,203.64v-.52c0-2.56.73-4.66,2.18-6.29,1.45-1.63,3.4-2.44,5.83-2.44s4.38.81,5.83,2.44c1.45,1.63,2.18,3.72,2.18,6.29v.52c0,2.56-.73,4.66-2.18,6.28-1.45,1.63-3.4,2.44-5.83,2.44s-4.38-.81-5.83-2.44c-1.45-1.63-2.18-3.72-2.18-6.28ZM430.83,203.12v.52c0,1.76.41,3.24,1.24,4.45.83,1.21,2.06,1.82,3.7,1.82s2.87-.61,3.7-1.82c.83-1.21,1.24-2.7,1.24-4.45v-.52c0-1.76-.41-3.24-1.24-4.45-.83-1.21-2.06-1.82-3.7-1.82s-2.87.61-3.7,1.82c-.83,1.21-1.24,2.7-1.24,4.45Z" style="fill:#020a0a;"/><path d="M450.87,212.73c-.47,0-.85-.38-.85-.85v-17c0-.47.38-.85.85-.85h11.08c.47,0,.85.38.85.85v2.34c0,.47-.38.85-.85.85h-7.23v13.8c0,.47-.38.85-.85.85h-3.01Z" style="fill:#fff;"/><path d="M450.87,194.88h11.08v2.34h-8.08v14.66h-3.01v-17Z" style="fill:#020a0a;"/><path d="M479.06,212.73c-.47,0-.85-.38-.85-.85v-9.71l-6.34,10.16c-.16.25-.43.4-.72.4h-3.01c-.47,0-.85-.38-.85-.85v-17c0-.47.38-.85.85-.85h3.01c.47,0,.85.38.85.85v9.73l6.34-10.18c.16-.25.43-.4.72-.4h3.01c.47,0,.85.38.85.85v17c0,.47-.38.85-.85.85h-3.01Z" style="fill:#fff;"/><path d="M468.14,211.88v-17h3.01v10.49c0,.32,0,.69,0,1.09,0,.4-.01.77-.02,1.09h.11c.15-.27.32-.56.51-.88.19-.32.38-.64.59-.98l6.74-10.81h3.01v17h-3.01v-10.47c0-.32,0-.69,0-1.09,0-.4.01-.77.02-1.09h-.11c-.15.27-.32.56-.51.88-.19.32-.39.64-.59.98l-6.74,10.79h-3.01Z" style="fill:#020a0a;"/><path d="M500.06,212.73c-.47,0-.85-.38-.85-.85v-5.81s-.04,0-.05.01c-.86.17-1.96.25-3.36.25-2.34,0-4.1-.6-5.21-1.78-1.1-1.16-1.65-2.9-1.65-5.16v-4.51c0-.47.38-.85.85-.85h3c.47,0,.85.38.85.85v4.51c0,1.14.2,1.97.55,2.33.36.36,1.12.55,2.18.55.91,0,1.73-.07,2.45-.2.12-.02.25-.05.38-.07v-7.12c0-.47.38-.85.85-.85h3.01c.47,0,.85.38.85.85v17c0,.47-.38.85-.85.85h-3.01Z" style="fill:#fff;"/><path d="M492.79,199.39c0,1.41.27,2.39.8,2.93s1.46.81,2.79.81c.96,0,1.83-.07,2.6-.21.77-.14,1.64-.33,2.58-.57v2.36c-.92.2-1.77.39-2.57.54s-1.86.23-3.2.23c-2.11,0-3.64-.5-4.59-1.51-.95-1.01-1.42-2.53-1.42-4.58v-4.51h3v4.51ZM503.07,194.88v17h-3.01v-17h3.01Z" style="fill:#020a0a;"/><path d="M518.32,213.22c-2.88,0-5.14-.92-6.71-2.73-1.54-1.78-2.32-4.08-2.32-6.84v-.52c0-2.76.78-5.06,2.32-6.84,1.57-1.81,3.66-2.73,6.23-2.73s4.59.87,6.01,2.59c1.37,1.67,2.07,3.92,2.07,6.7v1.23c0,.47-.38.85-.85.85h-10.91c.15,1.03.49,1.94,1.01,2.7.67.97,1.7,1.45,3.16,1.45.91,0,1.7-.2,2.34-.59.68-.42,1.24-.91,1.65-1.47.14-.18.34-.3.57-.33.04,0,.07,0,.11,0,.19,0,.38.06.53.18l1.94,1.53c.35.28.43.77.18,1.14-.61.91-1.53,1.75-2.75,2.51-1.26.78-2.79,1.18-4.56,1.18ZM521.17,200.82c-.07-.83-.35-1.53-.84-2.13-.54-.66-1.31-.98-2.36-.98-1.3,0-2.23.47-2.86,1.43-.33.5-.58,1.07-.75,1.68h6.81Z" style="fill:#fff;"/><path d="M510.14,203.64v-.52c0-2.56.7-4.66,2.11-6.29s3.27-2.44,5.58-2.44,4.1.76,5.35,2.28,1.87,3.57,1.87,6.16v1.23h-13.07v-2.39h10.05v-.39c0-1.23-.35-2.27-1.05-3.14-.7-.86-1.71-1.29-3.02-1.29-1.59,0-2.78.61-3.57,1.82-.79,1.21-1.18,2.7-1.18,4.45v.52c0,1.76.41,3.24,1.24,4.45.83,1.21,2.12,1.82,3.86,1.82,1.08,0,2-.24,2.78-.71.77-.47,1.41-1.03,1.89-1.68l1.94,1.53c-.54.81-1.37,1.56-2.5,2.26-1.13.7-2.5,1.05-4.11,1.05-2.64,0-4.66-.81-6.07-2.44-1.41-1.63-2.11-3.72-2.11-6.28Z" style="fill:#020a0a;"/><path d="M538.89,213.22c-2.69,0-4.85-.92-6.41-2.74-1.52-1.78-2.3-4.08-2.3-6.84v-.52c0-2.76.77-5.06,2.3-6.84,1.56-1.82,3.71-2.74,6.41-2.74,2.49,0,4.43.71,5.77,2.1,1.33,1.38,2,2.96,2,4.68,0,.47-.38.93-.85.93h-2.91c-.47,0-.85-.38-.85-.85,0-.79-.24-1.39-.73-1.93-.46-.51-1.28-.77-2.42-.77-1.34,0-2.29.47-2.9,1.43-.68,1.07-1.03,2.41-1.03,3.99v.52c0,1.58.35,2.92,1.03,3.99.61.96,1.56,1.43,2.9,1.43,1.14,0,1.96-.26,2.42-.77.49-.54.73-1.15.73-1.85,0-.47.38-.93.85-.93h2.91c.47,0,.85.38.85.85,0,1.81-.67,3.39-2,4.77-1.33,1.39-3.27,2.09-5.77,2.09Z" style="fill:#fff;"/><path d="M531.03,203.64v-.52c0-2.56.7-4.66,2.09-6.29s3.32-2.44,5.76-2.44c2.26,0,3.98.61,5.15,1.83s1.76,2.59,1.76,4.1v.08h-2.91v-.08c0-.92-.32-1.72-.95-2.42-.64-.7-1.65-1.05-3.05-1.05-1.64,0-2.84.61-3.62,1.82-.77,1.21-1.16,2.7-1.16,4.45v.52c0,1.76.39,3.24,1.16,4.45.78,1.21,1.98,1.82,3.62,1.82,1.4,0,2.42-.35,3.05-1.05.64-.7.95-1.51.95-2.42v-.08h2.91v.08c0,1.51-.59,2.87-1.76,4.1s-2.89,1.83-5.15,1.83c-2.45,0-4.37-.81-5.76-2.44-1.4-1.63-2.09-3.72-2.09-6.28Z" style="fill:#020a0a;"/><path d="M563.64,212.73c-.25,0-.48-.11-.64-.29l-6.35-7.22h-.18v6.66c0,.47-.38.85-.85.85h-3.01c-.47,0-.85-.38-.85-.85v-17c0-.47.38-.85.85-.85h3.01c.47,0,.85.38.85.85v6.29h.15l5.97-6.85c.16-.19.4-.29.64-.29h3.52c.33,0,.64.2.77.5.14.3.08.66-.13.91l-6.71,7.65,7.27,8.23c.22.25.28.61.14.91s-.44.5-.78.5h-3.68Z" style="fill:#fff;"/><path d="M555.62,194.88v17h-3.01v-17h3.01ZM554.12,202.02h2.89l6.22-7.14h3.52l-8.32,9.49h-4.31v-2.34ZM563.64,211.88l-6.77-7.71,1.84-2.04,8.61,9.74h-3.68Z" style="fill:#020a0a;"/><path d="M583.7,212.73c-.47,0-.85-.38-.85-.85v-9.72l-6.34,10.17c-.16.25-.43.4-.72.4h-3.01c-.47,0-.85-.38-.85-.85v-17c0-.47.38-.85.85-.85h3.01c.47,0,.85.38.85.85v9.73l6.34-10.18c.16-.25.43-.4.72-.4h3c.47,0,.85.38.85.85v17c0,.47-.38.85-.85.85h-3Z" style="fill:#fff;"/><path d="M572.78,211.88v-17h3.01v10.49c0,.32,0,.69,0,1.09,0,.4-.01.77-.02,1.09h.11c.15-.27.32-.56.51-.88.19-.32.38-.64.59-.98l6.74-10.81h3v17h-3v-10.47c0-.32,0-.69,0-1.09,0-.4.01-.77.02-1.09h-.11c-.15.27-.32.56-.51.88-.19.32-.38.64-.59.98l-6.74,10.79h-3.01Z" style="fill:#020a0a;"/><path d="M604.45,212.73c-.29,0-.55-.14-.71-.38l-3.45-5.27-3.45,5.27c-.16.24-.42.38-.71.38h-3.39c-.32,0-.61-.17-.75-.46-.15-.28-.13-.62.05-.88l5.6-8.15-5.28-7.9c-.17-.26-.19-.6-.04-.87.15-.28.44-.45.75-.45h3.44c.29,0,.56.15.72.4l3.12,4.94,3.12-4.94c.16-.25.43-.4.72-.4h3.39c.31,0,.6.17.75.45.15.28.13.61-.04.87l-5.28,7.9,5.6,8.15c.18.26.2.6.05.88-.15.28-.44.46-.75.46h-3.44Z" style="fill:#fff;"/><path d="M592.73,211.88l6.46-9.4h.18l4.8-7.59h3.39l-6.14,9.18h-.18l-5.12,7.82h-3.39ZM593.06,194.88h3.44l4.8,7.59h.13l6.46,9.4h-3.44l-5.12-7.82h-.13l-6.14-9.18Z" style="fill:#020a0a;"/><path d="M315.95,252.44c-.47,0-.85-.38-.85-.85v-13.81h-5.73v13.81c0,.47-.38.85-.85.85h-3.01c-.47,0-.85-.38-.85-.85v-17c0-.47.38-.85.85-.85h13.44c.47,0,.85.38.85.85v17c0,.47-.38.85-.85.85h-3.01Z" style="fill:#fff;"/><path d="M305.51,234.59h13.44v17h-3.01v-14.66h-7.43v14.66h-3.01v-17Z" style="fill:#020a0a;"/><path d="M327.05,259.16c-.47,0-.85-.38-.85-.85v-23.72c0-.47.38-.85.85-.85h2.71c.45,0,.82.35.85.8l.02.33c.28-.22.59-.42.92-.6,1.01-.57,2.2-.85,3.52-.85,2.42,0,4.38.92,5.84,2.74,1.41,1.76,2.13,4.01,2.13,6.67v.52c0,2.66-.72,4.91-2.13,6.67-1.46,1.82-3.42,2.74-5.84,2.74-1.32,0-2.46-.25-3.42-.73-.27-.14-.52-.29-.76-.45v6.73c0,.47-.38.85-.85.85h-3.01ZM330.9,246.36c.28.56.72,1.08,1.31,1.54.61.48,1.33.71,2.22.71,1.32,0,2.25-.45,2.84-1.37.66-1.03,1-2.34,1-3.89v-.52c0-1.55-.33-2.86-1-3.89-.59-.92-1.52-1.37-2.84-1.37-.89,0-1.62.23-2.22.71-.59.46-1.03.98-1.31,1.54v6.54Z" style="fill:#fff;"/><path d="M327.05,258.31v-23.72h2.72l.13,2.21h.1c.43-.7,1.09-1.3,1.98-1.79.89-.5,1.92-.74,3.11-.74,2.15,0,3.88.81,5.17,2.42,1.29,1.62,1.94,3.66,1.94,6.14v.52c0,2.48-.65,4.52-1.94,6.14-1.29,1.62-3.02,2.42-5.17,2.42-1.19,0-2.19-.21-3.03-.64s-1.5-.99-2-1.69v8.72h-3.01ZM330.05,246.55c.33.75.88,1.43,1.63,2.02s1.67.89,2.75.89c1.62,0,2.8-.59,3.55-1.76.75-1.17,1.13-2.62,1.13-4.35v-.52c0-1.72-.38-3.17-1.13-4.35s-1.94-1.76-3.55-1.76c-1.08,0-1.99.3-2.75.89s-1.3,1.27-1.63,2.02v6.92Z" style="fill:#020a0a;"/><path d="M356.26,252.93c-2.68,0-4.85-.92-6.47-2.72-1.59-1.78-2.4-4.08-2.4-6.85v-.52c0-2.77.81-5.07,2.4-6.85,1.62-1.81,3.79-2.72,6.47-2.72s4.85.92,6.47,2.72c1.59,1.78,2.4,4.08,2.4,6.85v.52c0,2.77-.81,5.07-2.4,6.85-1.61,1.81-3.79,2.72-6.47,2.72ZM356.26,237.42c-1.35,0-2.33.47-3,1.45-.73,1.06-1.09,2.4-1.09,3.97v.52c0,1.57.37,2.91,1.1,3.97.67.97,1.65,1.45,3,1.45s2.33-.47,3-1.45c.73-1.06,1.09-2.4,1.09-3.97v-.52c0-1.57-.37-2.91-1.09-3.97-.67-.97-1.65-1.45-3-1.45Z" style="fill:#fff;"/><path d="M348.24,243.35v-.52c0-2.56.73-4.66,2.18-6.29,1.45-1.63,3.4-2.44,5.83-2.44s4.38.81,5.83,2.44c1.45,1.63,2.18,3.72,2.18,6.29v.52c0,2.56-.73,4.66-2.18,6.28-1.45,1.63-3.4,2.44-5.83,2.44s-4.38-.81-5.83-2.44c-1.45-1.63-2.18-3.72-2.18-6.28ZM351.31,242.83v.52c0,1.76.41,3.24,1.24,4.45.83,1.21,2.06,1.82,3.7,1.82s2.87-.61,3.7-1.82c.83-1.21,1.24-2.7,1.24-4.45v-.52c0-1.76-.41-3.24-1.24-4.45-.83-1.21-2.06-1.82-3.7-1.82s-2.87.61-3.7,1.82c-.83,1.21-1.24,2.7-1.24,4.45Z" style="fill:#020a0a;"/><path d="M384.58,256.8c-.47,0-.85-.38-.85-.85v-3.51h-12.38c-.47,0-.85-.38-.85-.85v-17c0-.47.38-.85.85-.85h3.01c.47,0,.85.38.85.85v13.81h5.73v-13.81c0-.47.38-.85.85-.85h3c.47,0,.85.38.85.85v13.81h1.65c.47,0,.85.38.85.85v6.71c0,.47-.38.85-.85.85h-2.71Z" style="fill:#fff;"/><path d="M384.58,255.95v-4.36h-13.23v-17h3.01v14.66h7.43v-14.66h3v14.66h2.51v6.7h-2.72Z" style="fill:#020a0a;"/><path d="M400.48,252.93c-2.89,0-5.14-.92-6.71-2.74-1.54-1.78-2.32-4.08-2.32-6.84v-.52c0-2.76.78-5.07,2.32-6.84,1.57-1.81,3.66-2.73,6.23-2.73s4.59.87,6.01,2.59c1.37,1.67,2.07,3.92,2.07,6.7v1.23c0,.47-.38.85-.85.85h-10.91c.15,1.03.49,1.94,1.01,2.7.67.97,1.7,1.45,3.16,1.45.92,0,1.7-.2,2.34-.58.68-.42,1.24-.91,1.65-1.47.14-.18.34-.3.57-.33.04,0,.07,0,.11,0,.19,0,.38.06.53.18l1.94,1.53c.35.27.43.77.18,1.14-.61.91-1.53,1.75-2.76,2.51-1.25.78-2.79,1.18-4.56,1.18ZM403.32,240.53c-.07-.83-.35-1.53-.84-2.14-.54-.66-1.31-.98-2.36-.98-1.3,0-2.23.47-2.86,1.43-.33.5-.58,1.07-.75,1.68h6.81Z" style="fill:#fff;"/><path d="M392.3,243.35v-.52c0-2.56.7-4.66,2.11-6.29,1.41-1.63,3.27-2.44,5.58-2.44s4.1.76,5.35,2.28c1.25,1.52,1.87,3.57,1.87,6.16v1.23h-13.07v-2.39h10.05v-.39c0-1.23-.35-2.27-1.05-3.14-.7-.86-1.71-1.29-3.02-1.29-1.6,0-2.79.61-3.57,1.82s-1.18,2.7-1.18,4.45v.52c0,1.76.41,3.24,1.24,4.45.83,1.21,2.12,1.82,3.86,1.82,1.08,0,2-.24,2.78-.71.78-.47,1.41-1.03,1.89-1.68l1.94,1.53c-.54.81-1.37,1.56-2.5,2.26-1.13.7-2.5,1.05-4.11,1.05-2.64,0-4.66-.81-6.07-2.44-1.41-1.63-2.11-3.72-2.11-6.28Z" style="fill:#020a0a;"/><path d="M421.05,252.93c-2.7,0-4.85-.92-6.41-2.74-1.52-1.78-2.3-4.08-2.3-6.84v-.52c0-2.76.77-5.06,2.3-6.84,1.56-1.82,3.71-2.74,6.41-2.74,2.49,0,4.43.71,5.77,2.1,1.33,1.38,2,2.96,2,4.68,0,.47-.38.93-.85.93h-2.91c-.47,0-.85-.38-.85-.85,0-.79-.24-1.39-.73-1.93-.46-.51-1.28-.77-2.42-.77-1.34,0-2.29.47-2.9,1.43-.68,1.07-1.03,2.41-1.03,3.99v.52c0,1.58.35,2.92,1.03,3.99.61.96,1.56,1.43,2.9,1.43,1.14,0,1.96-.26,2.42-.77.49-.54.73-1.15.73-1.85,0-.47.38-.93.85-.93h2.91c.47,0,.85.38.85.85,0,1.81-.67,3.39-2,4.77-1.33,1.39-3.27,2.09-5.77,2.09Z" style="fill:#fff;"/><path d="M413.19,243.35v-.52c0-2.56.7-4.66,2.09-6.29s3.32-2.44,5.76-2.44c2.26,0,3.98.61,5.15,1.83s1.76,2.59,1.76,4.1v.08h-2.91v-.08c0-.92-.32-1.72-.95-2.42-.64-.7-1.65-1.05-3.05-1.05-1.64,0-2.84.61-3.62,1.82-.77,1.21-1.16,2.7-1.16,4.45v.52c0,1.76.39,3.24,1.16,4.45.78,1.21,1.98,1.82,3.62,1.82,1.4,0,2.42-.35,3.05-1.05.64-.7.95-1.51.95-2.42v-.08h2.91v.08c0,1.51-.59,2.87-1.76,4.1s-2.89,1.83-5.15,1.83c-2.45,0-4.37-.81-5.76-2.44-1.4-1.63-2.09-3.72-2.09-6.28Z" style="fill:#020a0a;"/><path d="M441.61,252.93c-2.7,0-4.85-.92-6.41-2.74-1.52-1.78-2.3-4.08-2.3-6.84v-.52c0-2.76.77-5.06,2.3-6.84,1.56-1.82,3.71-2.74,6.41-2.74,2.49,0,4.43.71,5.77,2.1,1.33,1.38,2,2.96,2,4.68,0,.47-.38.93-.85.93h-2.91c-.47,0-.85-.38-.85-.85,0-.79-.24-1.39-.73-1.93-.46-.51-1.28-.77-2.43-.77-1.34,0-2.29.47-2.9,1.42-.68,1.07-1.03,2.41-1.03,3.99v.52c0,1.58.35,2.93,1.03,3.99.61.96,1.56,1.43,2.9,1.43,1.14,0,1.96-.26,2.42-.77.49-.54.73-1.15.73-1.85,0-.47.38-.93.85-.93h2.91c.47,0,.85.38.85.85,0,1.81-.67,3.39-2,4.77-1.33,1.39-3.28,2.09-5.77,2.09Z" style="fill:#fff;"/><path d="M433.76,243.35v-.52c0-2.56.7-4.66,2.09-6.29s3.32-2.44,5.76-2.44c2.26,0,3.98.61,5.15,1.83s1.76,2.59,1.76,4.1v.08h-2.91v-.08c0-.92-.32-1.72-.95-2.42-.64-.7-1.65-1.05-3.05-1.05-1.64,0-2.84.61-3.62,1.82-.77,1.21-1.16,2.7-1.16,4.45v.52c0,1.76.39,3.24,1.16,4.45.78,1.21,1.98,1.82,3.62,1.82,1.4,0,2.42-.35,3.05-1.05.64-.7.95-1.51.95-2.42v-.08h2.91v.08c0,1.51-.59,2.87-1.76,4.1s-2.89,1.83-5.15,1.83c-2.45,0-4.37-.81-5.76-2.44-1.4-1.63-2.09-3.72-2.09-6.28Z" style="fill:#020a0a;"/><path d="M462.34,252.93c-2.68,0-4.85-.92-6.47-2.72-1.59-1.78-2.4-4.08-2.4-6.85v-.52c0-2.77.81-5.07,2.4-6.85,1.62-1.81,3.79-2.72,6.47-2.72s4.85.92,6.47,2.72c1.59,1.78,2.4,4.09,2.4,6.85v.52c0,2.77-.81,5.07-2.4,6.85-1.62,1.81-3.79,2.72-6.47,2.72ZM462.34,237.42c-1.35,0-2.33.47-3,1.45-.73,1.06-1.1,2.4-1.1,3.97v.52c0,1.57.37,2.91,1.1,3.97.67.98,1.65,1.45,3,1.45s2.33-.47,3-1.45c.73-1.06,1.1-2.4,1.1-3.97v-.52c0-1.57-.37-2.91-1.1-3.97-.67-.97-1.65-1.45-3-1.45Z" style="fill:#fff;"/><path d="M454.33,243.35v-.52c0-2.56.73-4.66,2.18-6.29,1.45-1.63,3.4-2.44,5.83-2.44s4.38.81,5.83,2.44c1.45,1.63,2.18,3.72,2.18,6.29v.52c0,2.56-.73,4.66-2.18,6.28-1.45,1.63-3.4,2.44-5.83,2.44s-4.38-.81-5.83-2.44c-1.45-1.63-2.18-3.72-2.18-6.28ZM457.4,242.83v.52c0,1.76.41,3.24,1.24,4.45.83,1.21,2.06,1.82,3.7,1.82s2.87-.61,3.7-1.82c.83-1.21,1.24-2.7,1.24-4.45v-.52c0-1.76-.42-3.24-1.24-4.45s-2.06-1.82-3.7-1.82-2.87.61-3.7,1.82c-.83,1.21-1.24,2.7-1.24,4.45Z" style="fill:#020a0a;"/><path d="M477.43,252.44c-.47,0-.85-.38-.85-.85v-17c0-.47.38-.85.85-.85h7.34c2.05,0,3.71.43,4.94,1.28,1.32.92,1.99,2.3,1.99,4.11,0,1.17-.36,2.17-1.08,2.97-.2.22-.42.42-.65.6.4.22.76.49,1.08.8.83.83,1.25,1.89,1.25,3.15,0,1.83-.68,3.29-2.03,4.32-1.28.98-2.96,1.48-5.01,1.48h-7.82ZM485.25,248.4c.86,0,1.47-.17,1.82-.49.34-.32.5-.72.5-1.26s-.15-.91-.48-1.21c-.34-.31-.97-.47-1.83-.47h-3.96v3.44h3.96ZM484.77,240.93c.84,0,1.44-.15,1.74-.44.3-.29.44-.67.44-1.2,0-.66-.24-.95-.42-1.1-.21-.18-.7-.41-1.77-.41h-3.48v3.15h3.48Z" style="fill:#fff;"/><path d="M477.43,251.59v-17h7.34c1.88,0,3.37.38,4.45,1.13,1.08.75,1.62,1.89,1.62,3.41,0,.96-.29,1.76-.86,2.4-.58.64-1.34,1.06-2.3,1.27v.05c1.17.17,2.09.59,2.76,1.25.67.66,1,1.51,1,2.54,0,1.56-.57,2.78-1.7,3.64-1.13.87-2.63,1.3-4.49,1.3h-7.82ZM480.43,241.78h4.33c1.08,0,1.85-.22,2.33-.67.47-.45.71-1.05.71-1.82s-.24-1.34-.71-1.75c-.47-.41-1.25-.61-2.33-.61h-4.33v4.85ZM480.43,249.25h4.81c1.09,0,1.89-.24,2.4-.72.51-.48.77-1.11.77-1.88s-.25-1.38-.76-1.84-1.31-.69-2.41-.69h-4.81v5.14Z" style="fill:#020a0a;"/><path d="M112.28,206.34c-.15,0-.29-.04-.43-.11l-36.5-21.07c-.41-.23-.55-.75-.31-1.16.16-.27.44-.43.74-.43.14,0,.29.04.42.11l36.88,20.84c.26.15.43.43.43.73,0,.3-.16.59-.42.74l-.38.23c-.13.08-.28.12-.43.12ZM145.71,206.19c-.14,0-.28-.04-.41-.11l-.4-.23c-.26-.15-.43-.43-.43-.74,0-.3.16-.59.43-.74l23.71-13.69,12.37-7.13c.13-.08.28-.11.42-.11.29,0,.58.15.74.42.24.4.1.92-.3,1.16l-35.65,21.02c-.14.09-.31.14-.48.14ZM72.1,76.82c-.15,0-.29-.04-.42-.11-.26-.15-.43-.43-.43-.74v-.24c0-.3.16-.58.42-.73l40.1-23.33c.13-.08.28-.12.43-.12s.31.04.44.12l.33.2c.26.15.42.43.42.74,0,.3-.16.58-.43.73l-23.58,13.61-11.82,6.83-5.04,2.93c-.13.08-.28.12-.43.12ZM185.88,76.53c-.15,0-.29-.04-.42-.11l-40.42-23.14c-.27-.15-.43-.44-.43-.75,0-.31.18-.59.45-.74l.19-.1.1-.06c.14-.08.29-.13.45-.13.15,0,.29.04.42.11l35.43,20.44.16.1,4.5,2.6c.26.15.43.43.43.74v.19c0,.3-.16.58-.42.74-.13.08-.28.11-.43.11Z" style="fill:#fff;"/><path d="M112.4,52.53l-.2-.12-35.87,20.87-.29.17-3.93,2.29v.24l5.04-2.93,11.82-6.83,23.58-13.61-.14-.08ZM181.35,72.87l-.12-.08-35.43-20.44-.15.09-.19.1,40.42,23.14v-.19l-4.53-2.61ZM75.78,184.42l36.5,21.07.38-.23-36.88-20.84ZM169.03,191.43l-23.7,13.69.4.23h.01s35.67-21.04,35.67-21.04l-12.37,7.13Z" style="fill:#00434d;"/><path d="M182.64,184.42c-.29,0-.58-.15-.74-.42-.24-.4-.1-.92.3-1.16l3.24-1.91c.13-.08.28-.12.43-.12s.29.04.42.11c.27.15.43.43.43.74s-.16.63-.43.78l-3.24,1.87c-.13.08-.28.11-.42.11ZM185.88,76.53c-.15,0-.29-.04-.42-.11l-40.42-23.14c-.27-.15-.43-.44-.43-.75,0-.31.18-.59.45-.74l.19-.1.1-.06c.14-.08.29-.13.45-.13.15,0,.29.04.42.11l35.43,20.44.16.1,4.5,2.6c.26.15.43.43.43.74v.19c0,.3-.16.58-.42.74-.13.08-.28.11-.43.11Z" style="fill:#fff;"/><path d="M181.35,72.87l-.12-.08-35.43-20.44-.15.09-.19.1,40.42,23.14v-.19l-4.53-2.61ZM182.64,183.57l3.24-1.87v-.05l-3.24,1.91ZM181.35,72.87l-.12-.08-35.43-20.44-.15.09-.19.1,40.42,23.14v-.19l-4.53-2.61Z" style="fill:#00434d;"/><path d="M129,257.38c-.15,0-.29-.04-.43-.12l-88.29-51.21L.43,183.04c-.26-.15-.43-.43-.43-.74v-106.82c0-.3.16-.58.43-.74l39.8-22.98L128.57.13c.13-.08.28-.12.43-.12s.3.04.43.12l88.02,51.46,40.11,23.16c.26.15.43.43.43.74v106.82c0,.3-.16.58-.43.74l-41.75,24.1-86.38,50.13c-.13.08-.28.12-.43.12ZM129,236.07l17.22-10-34.36-19.85c-.25-.14-.41-.4-.42-.68l-36.07-20.38-3.69-2.12c-.26-.15-.43-.43-.43-.74v-85.66l-17.07,9.85v86.17l74.81,43.4ZM164.62,215.27l74.8-43.19v-86.38l-17.07-9.85v85.29c0,.3-.16.58-.43.74l-35.62,20.57c-.07.04-.15.07-.23.09l-3,1.77-1.25.73-12.38,7.13-22.43,12.95,17.6,10.16ZM128.95,194.67l39.23-23.13v-85.84l-39.17-22.6-39.2,22.81v86.16l39.14,22.59ZM35.64,181.94v-85.67c0-.3.16-.58.43-.74l39.54-22.82c.13-.08.28-.11.42-.11.05,0,.1,0,.16.01l12.35-7.13,22.31-12.88-17.48-10.08L18.56,85.7v86.38l17.08,9.86ZM186.3,74.94c.26.15.43.43.43.74v85.09l17.08-9.86v-85.8l-74.81-43.74-17.47,10.22,34.7,20.03c.23.13.38.37.42.63l39.66,22.7Z" style="fill:#fff;"/><path d="M217.01,52.33L129,.86,40.65,52.51.85,75.49v106.82l39.86,23.01,88.29,51.21,86.39-50.13,1.94-1.12,39.81-22.98v-106.82l-40.12-23.16ZM129,20.38l75.67,44.24v86.78l-18.78,10.84v-86.57l-40.42-23.14.19-.1.15-.09-16.82-9.71-19.14-11.05,19.17-11.21ZM169.03,85.21v86.82l-40.07,23.63-39.99-23.08v-87.14l40.05-23.31,40.02,23.09ZM36.49,96.27v87.14l-18.78-10.84v-87.36l31.41-18.14,44.24-25.54,18.84,10.87.2.12.14.08-23.58,13.61-11.82,6.83-5.04,2.93v-.24l3.93-2.29-39.54,22.82ZM129,237.05l-75.67-43.89v-87.16l18.77-10.83v87.13l3.63,2.09.05.02,36.88,20.84-.38.23,16.77,9.68,18.87,10.9-18.92,10.98ZM240.28,172.57l-31.4,18.14-44.25,25.55-18.9-10.91-.4-.23,23.7-13.69,12.37-7.13.82-.48.43-.25,3.24-1.91v.05l35.63-20.57v-86.76l18.77,10.83v87.36Z" style="fill:#00434d;"/></svg>